<svg xmlns="http://www.w3.org/2000/svg" viewBox="0 0 50 50"><defs><style>.a{fill:#f5f5f5;}</style></defs><path class="a" d="M12.327,9.656l-.85-2.16H8.747l-.83,2.16h-.81l2.7-6.84h.66l2.68,6.84Zm-1.09-2.88-.79-2.11a8.491,8.491,0,0,1-.32-1c-.07.3-.17.63-.29,1l-.81,2.11Z"/><path class="a" d="M17.807,7.846a1.67,1.67,0,0,1-.65,1.4,2.817,2.817,0,0,1-1.77.51,4.416,4.416,0,0,1-1.87-.32v-.76a4.987,4.987,0,0,0,.91.28,4.726,4.726,0,0,0,1,.1,2,2,0,0,0,1.2-.3,1.109,1.109,0,0,0,.25-1.41,1.322,1.322,0,0,0-.49-.37,6.3,6.3,0,0,0-1-.43,3.222,3.222,0,0,1-1.36-.81,1.792,1.792,0,0,1-.41-1.22,1.52,1.52,0,0,1,.59-1.25,2.49,2.49,0,0,1,1.57-.47,4.644,4.644,0,0,1,1.87.38l-.25.69a4.162,4.162,0,0,0-1.64-.36,1.57,1.57,0,0,0-1,.27.879.879,0,0,0-.36.75,1.2,1.2,0,0,0,.13.58,1.359,1.359,0,0,0,.44.42,5.8,5.8,0,0,0,1,.41,3.8,3.8,0,0,1,1.47.82A1.643,1.643,0,0,1,17.807,7.846Z"/><path class="a" d="M23.387,4.836a1.9,1.9,0,0,1-.7,1.59,3.2,3.2,0,0,1-2,.55h-.77v2.68h-.79V2.846h1.76C22.537,2.846,23.387,3.506,23.387,4.836ZM19.917,6.3h.71a2.608,2.608,0,0,0,1.47-.32,1.231,1.231,0,0,0,.47-1.09,1.152,1.152,0,0,0-.44-1,2.307,2.307,0,0,0-1.38-.33h-.83Z"/><path class="a" d="M24.467,9.166a.686.686,0,0,1,.14-.47.5.5,0,0,1,.41-.16.541.541,0,0,1,.42.16.657.657,0,0,1,.15.47.683.683,0,0,1-.15.47.611.611,0,0,1-.42.16.567.567,0,0,1-.4-.15A.654.654,0,0,1,24.467,9.166Z"/><path class="a" d="M32.427,9.656h-.9L27.8,3.976h0c0,.67.07,1.28.07,1.84v3.84h-.73V2.846h.9l3.71,5.7h0a7.037,7.037,0,0,0-.05-.81,6.478,6.478,0,0,1,0-1V2.846h.74Z"/><path class="a" d="M37.977,9.656h-3.8V2.846h3.8v.71h-3v2.19H37.8v.7h-2.83v2.53h3Z"/><path class="a" d="M41.457,9.656h-.79v-6.1h-2.16v-.71h5.1v.71h-2.15Z"/><path class="a" d="M29.6,23.406h-2v15.36h2v-8.58s.78-7.14,5.69-4.78v-2s-3.85-1.73-5.69,3.3C29.6,26.666,29.577,23.386,29.6,23.406Z"/><path class="a" d="M43.347,22.976c-2.83,0-6.52,2.8-6.52,7.76s2.37,8.24,6.33,8.38,5.86-1.61,5.86-1.61v-2c-9.89,5.83-10.1-4.09-10.1-4.09h11C50.167,23.346,45.717,22.976,43.347,22.976Zm4.57,6.71h-9s.65-5,4.68-5C48.137,24.726,47.917,29.686,47.917,29.686Z"/><path class="a" d="M16.207,25.036a5.5,5.5,0,0,0-5.5,5.5v.81a5.059,5.059,0,0,0,5.06,5.06h.29a5.2,5.2,0,0,0,5.21-5.19V30.1a5.051,5.051,0,0,0-5.04-5.06Z"/><path class="a" d="M16.207,47.206a16.54,16.54,0,0,1,0-33.07,16,16,0,0,1,11.49,4.84l-1.28,1.25a14.284,14.284,0,0,0-10.21-4.25,14.73,14.73,0,0,0,0,29.45,14.29,14.29,0,0,0,10.14-4.21l1.28,1.27A16.077,16.077,0,0,1,16.207,47.206Z"/></svg>