<svg xmlns="http://www.w3.org/2000/svg" xmlns:xlink="http://www.w3.org/1999/xlink" viewBox="0 0 50 50"><defs><style>.a,.b{fill:#f5f5f5;}.b{fill-rule:evenodd;}.c{clip-path:url(#a);}.d{clip-path:url(#b);}.e{clip-path:url(#c);}</style><clipPath id="a"><path class="a" d="M18.17,16.759l-4.77,2.75a.579.579,0,0,0-.28.5v5.5a.581.581,0,0,0,.28.5l4.77,2.75a.584.584,0,0,0,.57,0L23.5,26a.571.571,0,0,0,.29-.5V20a.57.57,0,0,0-.29-.5l-4.76-2.75a.638.638,0,0,0-.58,0"/></clipPath><clipPath id="b"><path class="a" d="M13.23,25.859a.839.839,0,0,0,.17.15l4.09,2.36.68.39a.559.559,0,0,0,.33.07h.11l5-9.19-.14-.11-3.12-1.8-1.64-.95-.15-.06Z"/></clipPath><clipPath id="c"><path class="a" d="M18.4,16.689a.627.627,0,0,0-.23.07L13.42,19.5l5.12,9.33a.489.489,0,0,0,.2-.07L23.5,26a.581.581,0,0,0,.28-.39L18.56,16.7H18.4"/></clipPath></defs><path class="a" d="M24.71,40.309a.893.893,0,0,1-.47-.13l-1.51-.89c-.22-.12-.11-.17,0-.19a3.368,3.368,0,0,0,.68-.31.108.108,0,0,1,.11,0l1.16.69a.171.171,0,0,0,.14,0l4.52-2.61a.14.14,0,0,0,.07-.12v-5.21a.137.137,0,0,0-.07-.12l-4.52-2.61a.171.171,0,0,0-.14,0l-4.51,2.61a.14.14,0,0,0-.07.12v5.21a.142.142,0,0,0,.07.12l1.24.72c.67.33,1.08-.06,1.08-.46V32a.13.13,0,0,1,.13-.13h.57a.13.13,0,0,1,.13.13v5.14a1.25,1.25,0,0,1-1.075,1.4,1.305,1.305,0,0,1-.265.007,2.012,2.012,0,0,1-1-.28l-1.18-.69a.942.942,0,0,1-.47-.82v-5.22a.942.942,0,0,1,.47-.82l4.52-2.61a1,1,0,0,1,1,0l4.51,2.61a1,1,0,0,1,.48.82v5.21a1,1,0,0,1-.48.82l-4.51,2.61a.912.912,0,0,1-.48.13"/><path class="a" d="M26.11,36.719c-2,0-2.39-.91-2.39-1.67a.13.13,0,0,1,.13-.13h.58a.129.129,0,0,1,.13.11c.09.6.35.9,1.55.9.95,0,1.35-.22,1.35-.72,0-.29-.11-.51-1.59-.65-1.24-.12-2-.4-2-1.39s.77-1.45,2.05-1.45c1.45,0,2.17.5,2.26,1.58a.133.133,0,0,1,0,.1.117.117,0,0,1-.09,0H27.5a.131.131,0,0,1-.13-.1c-.14-.62-.48-.82-1.41-.82s-1.16.36-1.16.63.14.42,1.55.61,2,.44,2,1.42-.82,1.55-2.25,1.55m5.5-5.53h.15a.13.13,0,0,0,.149-.108.116.116,0,0,0,0-.032c0-.13-.09-.13-.14-.13H31.6Zm-.18-.43h.33c.12,0,.34,0,.34.26a.221.221,0,0,1-.18.24c.13,0,.14.1.16.22a1.612,1.612,0,0,0,0,.26h-.2V31.4c0-.02,0-.08-.1-.08H31.6v.39h-.19Zm-.41.49a.73.73,0,1,0,.73-.73h0a.73.73,0,0,0-.73.73m1.6,0a.87.87,0,1,1-.87-.87.87.87,0,0,1,.87.87h0"/><path class="b" d="M10.73,19.919a.579.579,0,0,0-.29-.5l-4.79-2.75a.5.5,0,0,0-.26-.08h0a.5.5,0,0,0-.26.08L.29,19.419a.581.581,0,0,0-.29.5v7.42a.272.272,0,0,0,.14.25.26.26,0,0,0,.29,0L3.29,26a.567.567,0,0,0,.29-.5V22a.6.6,0,0,1,.29-.51l1.21-.69a.507.507,0,0,1,.29-.08.45.45,0,0,1,.28.08l1.21.69a.588.588,0,0,1,.29.5v3.47a.593.593,0,0,0,.29.5l2.85,1.63a.3.3,0,0,0,.29,0,.288.288,0,0,0,.14-.25Zm22.59,3.87a.14.14,0,0,1-.07.12l-1.65.95a.171.171,0,0,1-.14,0l-1.64-.95a.132.132,0,0,1-.08-.12v-1.9a.168.168,0,0,1,.07-.13l1.65-1a.171.171,0,0,1,.14,0l1.65,1a.168.168,0,0,1,.07.13Zm.45-14.06a.3.3,0,0,0-.29,0,.292.292,0,0,0-.15.25v7.34a.19.19,0,0,1-.1.18.182.182,0,0,1-.2,0l-1.2-.69a.6.6,0,0,0-.58,0l-4.78,2.76a.59.59,0,0,0-.29.5V25.6a.571.571,0,0,0,.29.5l4.78,2.77a.6.6,0,0,0,.58,0l4.79-2.77a.571.571,0,0,0,.29-.5V11.819a.558.558,0,0,0-.3-.5Zm15.94,12.11a.591.591,0,0,0,.29-.5V20a.57.57,0,0,0-.29-.5L45,16.739a.547.547,0,0,0-.58,0L39.59,19.5a.57.57,0,0,0-.29.5v5.53a.581.581,0,0,0,.29.5l4.76,2.71a.56.56,0,0,0,.56,0l2.88-1.59a.312.312,0,0,0,.15-.26.288.288,0,0,0-.15-.25L43,23.879a.291.291,0,0,1-.15-.25v-1.74a.3.3,0,0,1,.14-.25l1.5-.86a.3.3,0,0,1,.29,0l1.5.86a.288.288,0,0,1,.15.25v1.37a.291.291,0,0,0,.14.25.3.3,0,0,0,.29,0Z"/><path class="b" d="M44.59,21.579a.108.108,0,0,1,.11,0l.92.53a.11.11,0,0,1,.06.1v1.06a.1.1,0,0,1-.06.09l-.92.53a.113.113,0,0,1-.11,0l-.91-.53a.1.1,0,0,1-.06-.09v-1.06a.119.119,0,0,1,.05-.1Z"/><path class="a" d="M18.17,16.759l-4.77,2.75a.579.579,0,0,0-.28.5v5.5a.581.581,0,0,0,.28.5l4.77,2.75a.584.584,0,0,0,.57,0L23.5,26a.571.571,0,0,0,.29-.5V20a.57.57,0,0,0-.29-.5l-4.76-2.75a.638.638,0,0,0-.58,0"/><g class="c"><path class="a" d="M28.6,19l-13.42-6.53L8.3,26.5l13.42,6.58Z"/></g><path class="a" d="M13.23,25.859a.839.839,0,0,0,.17.15l4.09,2.36.68.39a.559.559,0,0,0,.33.07h.11l5-9.19-.14-.11-3.12-1.8-1.64-.95-.15-.06Z"/><g class="d"><path class="a" d="M7.43,21l9.48,12.82,12.53-9.25L20,11.729Z"/></g><path class="a" d="M18.4,16.689a.627.627,0,0,0-.23.07L13.42,19.5l5.12,9.33a.489.489,0,0,0,.2-.07L23.5,26a.581.581,0,0,0,.28-.39L18.56,16.7H18.4"/><g class="e"><path class="a" d="M13.42,16.689v12.14H23.78V16.689Z"/></g></svg>